<?xml version="1.0" encoding="utf-8"?>
<!-- Generator: Adobe Illustrator 25.2.1, SVG Export Plug-In . SVG Version: 6.00 Build 0)  -->
<svg version="1.1" id="图层_1" xmlns="http://www.w3.org/2000/svg" xmlns:xlink="http://www.w3.org/1999/xlink" x="0px" y="0px"
	 viewBox="0 0 512 512" style="enable-background:new 0 0 512 512;" xml:space="preserve">
<style type="text/css">
	.st0{fill:#50CCD3;}
	.st1{fill:#FCC24C;}
	.st2{fill:#FD5A5A;}
	.st3{fill:#C1DB66;}
</style>
<path class="st0" d="M90.3,253.7c79.3-32.7,117.7-15.2,152.1,8.1l-39.7,136.5c-34.5-23.2-72-42.3-151.7-9.4l38.8-135L90.3,253.7z"/>
<path class="st1" d="M263.2,275c34.5,23.2,69.8,40.2,150.8,12.5l-37.8,131.6C296.6,452,258.4,433.4,224,410L263.2,275z"/>
<path class="st2" d="M249,237.2c-20.8-14-43.1-27.1-74.8-27.3c-20.9-0.2-45.9,5.8-77.5,18.9l39.2-135.9
	c79.6-32.9,117.9-14.3,152.3,9.1L249,237.2z"/>
<path class="st3" d="M461,125c-79.5,32.9-117.7,14.4-152.1-8.8l-39.2,136c34.4,23.3,75.9,42.4,152.2,8.3L461,125z"/>
</svg>
